REM DIRINDEX 1\2\5,1\2\6,1\2\7,1\2\8,1\3\9,1\3\10,1\3\11,1\4\12,1\4\13,1\4\14,1\4\15,1\4\16
REM DIRNAME cjc034,folder01,folder02,folder03,folder04,folder05,folder06,folder07,folder08,folder09,folder10,folder11,folder12,folder13,folder14,folder15
TITLE ""
FILE "1200_2_sec02_0276_0291.mp3" MP3
  TRACK 01 AUDIO
    TITLE "0:"
    INDEX 01 00:00:00
  TRACK 02 AUDIO
    TITLE "10:cjc034_00568"
    INDEX 01 00:00:15
  TRACK 03 AUDIO
    TITLE "0:"
    INDEX 01 00:02:61
  TRACK 04 AUDIO
    TITLE "9:cjc034_00569"
    INDEX 01 00:02:63
  TRACK 05 AUDIO
    TITLE "0:"
    INDEX 01 00:03:61
  TRACK 06 AUDIO
    TITLE "10:cjc034_00570"
    INDEX 01 00:04:46
  TRACK 07 AUDIO
    TITLE "0:"
    INDEX 01 00:05:57
  TRACK 08 AUDIO
    TITLE "9:cjc034_00571"
    INDEX 01 00:05:59
  TRACK 09 AUDIO
    TITLE "0:"
    INDEX 01 00:07:09
  TRACK 10 AUDIO
    TITLE "10:cjc034_00572"
    INDEX 01 00:07:62
  TRACK 11 AUDIO
    TITLE "0:"
    INDEX 01 00:09:14
  TRACK 12 AUDIO
    TITLE "9:cjc034_00573"
    INDEX 01 00:09:24
  TRACK 13 AUDIO
    TITLE "0:"
    INDEX 01 00:10:43
  TRACK 14 AUDIO
    TITLE "10:cjc034_00574"
    INDEX 01 00:11:27
  TRACK 15 AUDIO
    TITLE "0:"
    INDEX 01 00:12:34
  TRACK 16 AUDIO
    TITLE "9:cjc034_00575"
    INDEX 01 00:12:44
  TRACK 17 AUDIO
    TITLE "0:"
    INDEX 01 00:13:59
  TRACK 18 AUDIO
    TITLE "10:cjc034_00576"
    INDEX 01 00:14:41
  TRACK 19 AUDIO
    TITLE "0:"
    INDEX 01 00:16:71
  TRACK 20 AUDIO
    TITLE "9:cjc034_00577"
    INDEX 01 00:17:02
  TRACK 21 AUDIO
    TITLE "0:"
    INDEX 01 00:18:05
  TRACK 22 AUDIO
    TITLE "10:cjc034_00578"
    INDEX 01 00:18:66
  TRACK 23 AUDIO
    TITLE "0:"
    INDEX 01 00:22:54
  TRACK 24 AUDIO
    TITLE "9:cjc034_00579"
    INDEX 01 00:22:56
  TRACK 25 AUDIO
    TITLE "0:"
    INDEX 01 00:23:65
  TRACK 26 AUDIO
    TITLE "10:cjc034_00580"
    INDEX 01 00:24:49
  TRACK 27 AUDIO
    TITLE "0:"
    INDEX 01 00:25:74
  TRACK 28 AUDIO
    TITLE "9:cjc034_00581"
    INDEX 01 00:26:05
  TRACK 29 AUDIO
    TITLE "0:"
    INDEX 01 00:27:04
  TRACK 30 AUDIO
    TITLE "10:cjc034_00582"
    INDEX 01 00:27:63
  TRACK 31 AUDIO
    TITLE "0:"
    INDEX 01 00:28:68
  TRACK 32 AUDIO
    TITLE "9:cjc034_00583"
    INDEX 01 00:28:72
  TRACK 33 AUDIO
    TITLE "0:"
    INDEX 01 00:30:01
  TRACK 34 AUDIO
    TITLE "10:cjc034_00584"
    INDEX 01 00:30:59
  TRACK 35 AUDIO
    TITLE "0:"
    INDEX 01 00:32:11
  TRACK 36 AUDIO
    TITLE "9:cjc034_00585"
    INDEX 01 00:32:15
  TRACK 37 AUDIO
    TITLE "0:"
    INDEX 01 00:33:44
  TRACK 38 AUDIO
    TITLE "10:cjc034_00586"
    INDEX 01 00:34:26
  TRACK 39 AUDIO
    TITLE "0:"
    INDEX 01 00:35:21
  TRACK 40 AUDIO
    TITLE "9:cjc034_00587"
    INDEX 01 00:35:29
  TRACK 41 AUDIO
    TITLE "0:"
    INDEX 01 00:36:35
  TRACK 42 AUDIO
    TITLE "10:cjc034_00588"
    INDEX 01 00:37:14
  TRACK 43 AUDIO
    TITLE "0:"
    INDEX 01 00:38:31
  TRACK 44 AUDIO
    TITLE "9:cjc034_00589"
    INDEX 01 00:38:35
  TRACK 45 AUDIO
    TITLE "0:"
    INDEX 01 00:39:58
  TRACK 46 AUDIO
    TITLE "10:cjc034_00590"
    INDEX 01 00:40:40
  TRACK 47 AUDIO
    TITLE "0:"
    INDEX 01 00:41:59
  TRACK 48 AUDIO
    TITLE "9:cjc034_00591"
    INDEX 01 00:41:67
  TRACK 49 AUDIO
    TITLE "0:"
    INDEX 01 00:43:19
  TRACK 50 AUDIO
    TITLE "10:cjc034_00592"
    INDEX 01 00:44:05
  TRACK 51 AUDIO
    TITLE "0:"
    INDEX 01 00:45:26
  TRACK 52 AUDIO
    TITLE "9:cjc034_00593"
    INDEX 01 00:45:35
  TRACK 53 AUDIO
    TITLE "0:"
    INDEX 01 00:46:54
  TRACK 54 AUDIO
    TITLE "10:cjc034_00594"
    INDEX 01 00:47:36
  TRACK 55 AUDIO
    TITLE "0:"
    INDEX 01 00:48:32
  TRACK 56 AUDIO
    TITLE "9:cjc034_00595"
    INDEX 01 00:48:40
  TRACK 57 AUDIO
    TITLE "0:"
    INDEX 01 00:49:43
  TRACK 58 AUDIO
    TITLE "10:cjc034_00596"
    INDEX 01 00:50:31
  TRACK 59 AUDIO
    TITLE "0:"
    INDEX 01 00:51:38
  TRACK 60 AUDIO
    TITLE "9:cjc034_00597"
    INDEX 01 00:51:44
  TRACK 61 AUDIO
    TITLE "0:"
    INDEX 01 00:52:47
  TRACK 62 AUDIO
    TITLE "10:cjc034_00598"
    INDEX 01 00:53:33
  TRACK 63 AUDIO
    TITLE "0:"
    INDEX 01 00:54:42
  TRACK 64 AUDIO
    TITLE "9:cjc034_00599"
    INDEX 01 00:54:46
  TRACK 65 AUDIO
    TITLE "0:"
    INDEX 01 00:55:59
